<?xml version="1.0" encoding="UTF-8"?>
<svg width="234px" height="69px" viewBox="0 0 234 69" version="1.1" xmlns="http://www.w3.org/2000/svg" xmlns:xlink="http://www.w3.org/1999/xlink">
    <!-- Generator: Sketch 49 (51002) - http://www.bohemiancoding.com/sketch -->
    <title>Artboard</title>
    <desc>Created with Sketch.</desc>
    <defs></defs>
    <g id="Artboard" stroke="none" stroke-width="1" fill="none" fill-rule="evenodd">
        <path d="M12.144,46.384 C9.99998928,46.384 7.90401024,46.1200026 5.856,45.592 C3.80798976,45.0639974 2.17600608,44.400004 0.96,43.6 L3.456,38.224 C4.60800576,38.9600037 5.99999184,39.5599977 7.632,40.024 C9.26400816,40.4880023 10.8639922,40.72 12.432,40.72 C15.6000158,40.72 17.184,39.9360078 17.184,38.368 C17.184,37.6319963 16.7520043,37.1040016 15.888,36.784 C15.0239957,36.4639984 13.696009,36.1920011 11.904,35.968 C9.79198944,35.6479984 8.04800688,35.2800021 6.672,34.864 C5.29599312,34.4479979 4.10400504,33.7120053 3.096,32.656 C2.08799496,31.5999947 1.584,30.0960098 1.584,28.144 C1.584,26.5119918 2.05599528,25.0640063 3,23.8 C3.94400472,22.5359937 5.31999096,21.5520035 7.128,20.848 C8.93600904,20.1439965 11.0719877,19.792 13.536,19.792 C15.3600091,19.792 17.175991,19.991998 18.984,20.392 C20.792009,20.792002 22.2879941,21.3439965 23.472,22.048 L20.976,27.376 C18.7039886,26.0959936 16.2240134,25.456 13.536,25.456 C11.935992,25.456 10.736004,25.6799978 9.936,26.128 C9.135996,26.5760022 8.736,27.1519965 8.736,27.856 C8.736,28.656004 9.16799568,29.2159984 10.032,29.536 C10.8960043,29.8560016 12.2719906,30.1599986 14.16,30.448 C16.2720106,30.8000018 17.9999933,31.175998 19.344,31.576 C20.6880067,31.976002 21.855995,32.7039947 22.848,33.76 C23.840005,34.8160053 24.336,36.2879906 24.336,38.176 C24.336,39.776008 23.8560048,41.1999938 22.896,42.448 C21.9359952,43.6960062 20.5360092,44.6639966 18.696,45.352 C16.8559908,46.0400034 14.6720126,46.384 12.144,46.384 Z M69.936,20.176 L60.576,46 L53.376,46 L47.568,29.968 L41.568,46 L34.368,46 L25.056,20.176 L32.112,20.176 L38.208,37.648 L44.544,20.176 L50.88,20.176 L57.024,37.648 L63.312,20.176 L69.936,20.176 Z M88.704,19.792 C91.104012,19.792 93.2879902,20.3439945 95.256,21.448 C97.2240098,22.5520055 98.7679944,24.10399 99.888,26.104 C101.008006,28.10401 101.568,30.4319867 101.568,33.088 C101.568,35.7440133 101.008006,38.07199 99.888,40.072 C98.7679944,42.07201 97.2240098,43.6239945 95.256,44.728 C93.2879902,45.8320055 91.104012,46.384 88.704,46.384 C85.4079835,46.384 82.8160094,45.3440104 80.928,43.264 L80.928,55.312 L73.44,55.312 L73.44,20.176 L80.592,20.176 L80.592,23.152 C82.4480093,20.9119888 85.1519822,19.792 88.704,19.792 Z M87.408,40.24 C89.3280096,40.24 90.9039938,39.5920065 92.136,38.296 C93.3680062,36.9999935 93.984,35.2640109 93.984,33.088 C93.984,30.9119891 93.3680062,29.1760065 92.136,27.88 C90.9039938,26.5839935 89.3280096,25.936 87.408,25.936 C85.4879904,25.936 83.9120062,26.5839935 82.68,27.88 C81.4479938,29.1760065 80.832,30.9119891 80.832,33.088 C80.832,35.2640109 81.4479938,36.9999935 82.68,38.296 C83.9120062,39.5920065 85.4879904,40.24 87.408,40.24 Z M116.544,19.792 C120.54402,19.792 123.615989,20.7439905 125.76,22.648 C127.904011,24.5520095 128.976,27.4239808 128.976,31.264 L128.976,46 L121.968,46 L121.968,42.784 C120.559993,45.184012 117.936019,46.384 114.096,46.384 C112.11199,46.384 110.392007,46.0480034 108.936,45.376 C107.479993,44.7039966 106.368004,43.7760059 105.6,42.592 C104.831996,41.4079941 104.448,40.0640075 104.448,38.56 C104.448,36.159988 105.351991,34.2720069 107.16,32.896 C108.968009,31.5199931 111.759981,30.832 115.536,30.832 L121.488,30.832 C121.488,29.1999918 120.992005,27.9440044 120,27.064 C119.007995,26.1839956 117.52001,25.744 115.536,25.744 C114.159993,25.744 112.808007,25.9599978 111.48,26.392 C110.151993,26.8240022 109.024005,27.4079963 108.096,28.144 L105.408,22.912 C106.816007,21.919995 108.50399,21.1520027 110.472,20.608 C112.44001,20.0639973 114.46399,19.792 116.544,19.792 Z M115.968,41.344 C117.248006,41.344 118.383995,41.048003 119.376,40.456 C120.368005,39.863997 121.071998,38.9920058 121.488,37.84 L121.488,35.2 L116.352,35.2 C113.279985,35.2 111.744,36.2079899 111.744,38.224 C111.744,39.1840048 112.119996,39.9439972 112.872,40.504 C113.624004,41.0640028 114.655993,41.344 115.968,41.344 Z M144.432,46.384 C142.287989,46.384 140.19201,46.1200026 138.144,45.592 C136.09599,45.0639974 134.464006,44.400004 133.248,43.6 L135.744,38.224 C136.896006,38.9600037 138.287992,39.5599977 139.92,40.024 C141.552008,40.4880023 143.151992,40.72 144.72,40.72 C147.888016,40.72 149.472,39.9360078 149.472,38.368 C149.472,37.6319963 149.040004,37.1040016 148.176,36.784 C147.311996,36.4639984 145.984009,36.1920011 144.192,35.968 C142.079989,35.6479984 140.336007,35.2800021 138.96,34.864 C137.583993,34.4479979 136.392005,33.7120053 135.384,32.656 C134.375995,31.5999947 133.872,30.0960098 133.872,28.144 C133.872,26.5119918 134.343995,25.0640063 135.288,23.8 C136.232005,22.5359937 137.607991,21.5520035 139.416,20.848 C141.224009,20.1439965 143.359988,19.792 145.824,19.792 C147.648009,19.792 149.463991,19.991998 151.272,20.392 C153.080009,20.792002 154.575994,21.3439965 155.76,22.048 L153.264,27.376 C150.991989,26.0959936 148.512013,25.456 145.824,25.456 C144.223992,25.456 143.024004,25.6799978 142.224,26.128 C141.423996,26.5760022 141.024,27.1519965 141.024,27.856 C141.024,28.656004 141.455996,29.2159984 142.32,29.536 C143.184004,29.8560016 144.559991,30.1599986 146.448,30.448 C148.560011,30.8000018 150.287993,31.175998 151.632,31.576 C152.976007,31.976002 154.143995,32.7039947 155.136,33.76 C156.128005,34.8160053 156.624,36.2879906 156.624,38.176 C156.624,39.776008 156.144005,41.1999938 155.184,42.448 C154.223995,43.6960062 152.824009,44.6639966 150.984,45.352 C149.143991,46.0400034 146.960013,46.384 144.432,46.384 Z M186.384,20.176 L174.72,47.584 C173.535994,50.5600149 172.072009,52.6559939 170.328,53.872 C168.583991,55.0880061 166.480012,55.696 164.016,55.696 C162.671993,55.696 161.344007,55.4880021 160.032,55.072 C158.719993,54.6559979 157.648004,54.0800037 156.816,53.344 L159.552,48.016 C160.128003,48.5280026 160.791996,48.9279986 161.544,49.216 C162.296004,49.5040014 163.039996,49.648 163.776,49.648 C164.800005,49.648 165.631997,49.4000025 166.272,48.904 C166.912003,48.4079975 167.487997,47.5840058 168,46.432 L168.096,46.192 L156.912,20.176 L164.64,20.176 L171.888,37.696 L179.184,20.176 L186.384,20.176 Z M191.088,46.24 C190.383996,46.24 189.784002,45.9840026 189.288,45.472 C188.791998,44.9599974 188.544,44.3360037 188.544,43.6 C188.544,42.8639963 188.791998,42.2480025 189.288,41.752 C189.784002,41.2559975 190.383996,41.008 191.088,41.008 C191.792004,41.008 192.399997,41.2559975 192.912,41.752 C193.424003,42.2480025 193.68,42.8639963 193.68,43.6 C193.68,44.3360037 193.424003,44.9599974 192.912,45.472 C192.399997,45.9840026 191.792004,46.24 191.088,46.24 Z M197.664,55.552 C196.607995,55.552 195.608005,55.4160014 194.664,55.144 C193.719995,54.8719986 192.944003,54.4640027 192.336,53.92 L193.536,51.328 C194.528005,52.1920043 195.839992,52.624 197.472,52.624 C198.816007,52.624 199.847996,52.224004 200.568,51.424 C201.288004,50.623996 201.648,49.4400078 201.648,47.872 L201.648,20.752 L205.056,20.752 L205.056,47.872 C205.056,50.2400118 204.416006,52.1119931 203.136,53.488 C201.855994,54.8640069 200.032012,55.552 197.664,55.552 Z M203.376,15.184 C202.671996,15.184 202.080002,14.9440024 201.6,14.464 C201.119998,13.9839976 200.88,13.4080034 200.88,12.736 C200.88,12.0959968 201.119998,11.5360024 201.6,11.056 C202.080002,10.5759976 202.671996,10.336 203.376,10.336 C204.080004,10.336 204.671998,10.5679977 205.152,11.032 C205.632002,11.4960023 205.872,12.0479968 205.872,12.688 C205.872,13.3920035 205.632002,13.9839976 205.152,14.464 C204.671998,14.9440024 204.080004,15.184 203.376,15.184 Z M221.328,46.24 C219.27999,46.24 217.320009,45.944003 215.448,45.352 C213.575991,44.759997 212.112005,44.0160045 211.056,43.12 L212.592,40.432 C213.648005,41.2640042 214.975992,41.9439974 216.576,42.472 C218.176008,43.0000026 219.839991,43.264 221.568,43.264 C223.872012,43.264 225.575994,42.9040036 226.68,42.184 C227.784006,41.4639964 228.336,40.4480066 228.336,39.136 C228.336,38.2079954 228.032003,37.4800026 227.424,36.952 C226.815997,36.4239974 226.048005,36.0240014 225.12,35.752 C224.191995,35.4799986 222.960008,35.2160013 221.424,34.96 C219.37599,34.5759981 217.728006,34.184002 216.48,33.784 C215.231994,33.383998 214.168004,32.7040048 213.288,31.744 C212.407996,30.7839952 211.968,29.4560085 211.968,27.76 C211.968,25.6479894 212.847991,23.9200067 214.608,22.576 C216.368009,21.2319933 218.815984,20.56 221.952,20.56 C223.584008,20.56 225.215992,20.7759978 226.848,21.208 C228.480008,21.6400022 229.823995,22.2079965 230.88,22.912 L229.392,25.648 C227.31199,24.2079928 224.832014,23.488 221.952,23.488 C219.775989,23.488 218.136006,23.8719962 217.032,24.64 C215.927994,25.4080038 215.376,26.4159938 215.376,27.664 C215.376,28.6240048 215.687997,29.3919971 216.312,29.968 C216.936003,30.5440029 217.711995,30.9679986 218.64,31.24 C219.568005,31.5120014 220.847992,31.7919986 222.48,32.08 C224.49601,32.4640019 226.111994,32.8479981 227.328,33.232 C228.544006,33.6160019 229.583996,34.2719954 230.448,35.2 C231.312004,36.1280046 231.744,37.4079918 231.744,39.04 C231.744,41.248011 230.824009,42.9999935 228.984,44.296 C227.143991,45.5920065 224.592016,46.24 221.328,46.24 Z" id="swpasy.js" fill="#000000"></path>
        <path d="" id="Path" stroke="#979797"></path>
        <path d="M82.2476172,60.5601108 L87.7523828,53.4398892 C98.0597788,61.4087141 107.825307,61.4087141 118.31191,53.4203261 L123.765692,60.5796739 C110.048821,71.0287859 95.7884818,71.0287859 82.2476172,60.5601108 Z" id="Path-2" fill="#F37171" fill-rule="nonzero"></path>
    </g>
</svg>